#define a_width 16 
#define a_height 14 
static unsigned char a_bits[] = { 
0xc0, 0x03, 0x20, 0x04, 0x20, 0x04, 0xe0, 0x07, 0x20, 0x04, 0x20, 0x04, 0x20, 0x04, 0x00, 0x00, 0x00, 0x00, 0x00, 0x00, 0x00, 0x00, 0x00, 0x00, 0x00, 0x00, 0x00, 0x00
};
