<?xml version="1.0" encoding="UTF-8" standalone="no"?>
<!-- Created with Inkscape (http://www.inkscape.org/) -->
<svg
   xmlns:dc="http://purl.org/dc/elements/1.1/"
   xmlns:cc="http://creativecommons.org/ns#"
   xmlns:rdf="http://www.w3.org/1999/02/22-rdf-syntax-ns#"
   xmlns:svg="http://www.w3.org/2000/svg"
   xmlns="http://www.w3.org/2000/svg"
   xmlns:sodipodi="http://sodipodi.sourceforge.net/DTD/sodipodi-0.dtd"
   xmlns:inkscape="http://www.inkscape.org/namespaces/inkscape"
   width="64px"
   height="64px"
   id="svg2524"
   sodipodi:version="0.32"
   inkscape:version="0.46"
   sodipodi:docname="icon2.svg"
   inkscape:output_extension="org.inkscape.output.svg.inkscape">
  <defs
     id="defs2526">
    <inkscape:perspective
       sodipodi:type="inkscape:persp3d"
       inkscape:vp_x="0 : 32 : 1"
       inkscape:vp_y="0 : 1000 : 0"
       inkscape:vp_z="64 : 32 : 1"
       inkscape:persp3d-origin="32 : 21.333333 : 1"
       id="perspective2532" />
  </defs>
  <sodipodi:namedview
     id="base"
     pagecolor="#ffffff"
     bordercolor="#666666"
     borderopacity="1.0"
     inkscape:pageopacity="0.0"
     inkscape:pageshadow="2"
     inkscape:zoom="5.5"
     inkscape:cx="32"
     inkscape:cy="32"
     inkscape:current-layer="layer1"
     showgrid="true"
     inkscape:document-units="px"
     inkscape:grid-bbox="true"
     inkscape:window-width="1104"
     inkscape:window-height="798"
     inkscape:window-x="17"
     inkscape:window-y="31" />
  <metadata
     id="metadata2529">
    <rdf:RDF>
      <cc:Work
         rdf:about="">
        <dc:format>image/svg+xml</dc:format>
        <dc:type
           rdf:resource="http://purl.org/dc/dcmitype/StillImage" />
      </cc:Work>
    </rdf:RDF>
  </metadata>
  <g
     id="layer1"
     inkscape:label="Layer 1"
     inkscape:groupmode="layer">
    <g
       id="g2556"
       transform="matrix(1.21,0,0,1.21,-587.15268,-302.79148)">
      <rect
         inkscape:export-ydpi="750"
         inkscape:export-xdpi="750"
         inkscape:export-filename="/home/perry/Desktop/g3484.png"
         y="254.50504"
         x="490.35715"
         height="34.464287"
         width="42.67857"
         id="rect2443"
         style="fill:#2b2b2b;fill-opacity:1;stroke:#cccccc;stroke-width:3.70000005;stroke-linecap:round;stroke-linejoin:round;stroke-miterlimit:50.90000153;stroke-dasharray:none;stroke-dashoffset:0;stroke-opacity:1" />
      <rect
         inkscape:export-ydpi="750"
         inkscape:export-xdpi="750"
         inkscape:export-filename="/home/perry/Desktop/g3484.png"
         y="291.41855"
         x="498.96707"
         height="8.6729517"
         width="25.458668"
         id="rect3215"
         style="fill:#ababab;fill-opacity:1;stroke:#cccccc;stroke-width:1.25561976;stroke-linecap:round;stroke-linejoin:round;stroke-miterlimit:50.90000153;stroke-dasharray:none;stroke-dashoffset:0;stroke-opacity:1" />
      <g
         inkscape:export-ydpi="750"
         inkscape:export-xdpi="750"
         inkscape:export-filename="/home/perry/Desktop/g3484.png"
         transform="matrix(0.782303,0,0,0.9710578,34.920948,53.562313)"
         id="g3255">
        <path
           style="fill:#00ff00;fill-opacity:1;fill-rule:evenodd;stroke:#00ff00;stroke-width:1;stroke-linecap:round;stroke-linejoin:round;stroke-miterlimit:4;stroke-dasharray:3, 3;stroke-dashoffset:0;stroke-opacity:1"
           d="M 587.65624,223.90185 C 630.84026,223.64931 630.84026,223.64931 630.84026,223.64931"
           id="path3258"
           sodipodi:nodetypes="cc" />
        <path
           style="fill:#00ff00;fill-opacity:1;fill-rule:evenodd;stroke:#00ff00;stroke-width:1;stroke-linecap:round;stroke-linejoin:round;stroke-miterlimit:4;stroke-dasharray:3, 3;stroke-dashoffset:0;stroke-opacity:1"
           d="M 588.33364,226.65049 C 631.51766,226.39795 631.51766,226.39795 631.51766,226.39795"
           id="path3260"
           sodipodi:nodetypes="cc" />
        <path
           style="fill:#00ff00;fill-opacity:1;fill-rule:evenodd;stroke:#00ff00;stroke-width:1;stroke-linecap:round;stroke-linejoin:round;stroke-miterlimit:4;stroke-dasharray:3, 3;stroke-dashoffset:0;stroke-opacity:1"
           d="M 586.86935,229.4005 C 630.05337,229.14796 630.05337,229.14796 630.05337,229.14796"
           id="path3262"
           sodipodi:nodetypes="cc" />
        <path
           style="fill:#00ff00;fill-opacity:1;fill-rule:evenodd;stroke:#00ff00;stroke-width:1;stroke-linecap:round;stroke-linejoin:round;stroke-miterlimit:4;stroke-dasharray:3, 3;stroke-dashoffset:0;stroke-opacity:1"
           d="M 587.90507,232.32907 C 631.08909,232.07653 631.08909,232.07653 631.08909,232.07653"
           id="path3264"
           sodipodi:nodetypes="cc" />
        <path
           style="font-size:7.59803295px;font-style:normal;font-weight:bold;fill:#00ff00;fill-opacity:1;stroke:none;stroke-width:1px;stroke-linecap:butt;stroke-linejoin:miter;stroke-opacity:1;font-family:Bitstream Vera Sans;-inkscape-font-specification:Sans Bold"
           d="M 586.80761,214.46213 C 588.23363,214.50623 589.67627,214.35492 591.08808,214.58082 C 592.96217,214.84145 593.53203,217.47371 592.14508,218.60762 C 591.17217,219.38231 589.87987,219.19854 588.71738,219.22285 C 588.71738,220.06595 588.71738,220.90905 588.71738,221.75215 C 588.08079,221.75215 587.4442,221.75215 586.80761,221.75215 C 586.80761,219.32214 586.80761,216.89213 586.80761,214.46213 z M 588.71738,215.82443 C 588.71738,216.50313 588.71738,217.18185 588.71738,217.86055 C 589.49841,217.82555 590.70479,218.087 590.91581,217.07045 C 591.17808,215.92809 589.90073,215.72851 589.05367,215.82442 C 588.94159,215.82442 588.8295,215.82442 588.71738,215.82443 z M 593.61833,214.46213 C 594.22847,214.46213 594.83861,214.46213 595.44875,214.46213 C 595.87535,216.22807 596.30197,217.99402 596.72857,219.75996 C 597.15186,217.99402 597.57515,216.22807 597.99842,214.46213 C 598.61187,214.46213 599.22532,214.46213 599.83877,214.46213 C 600.26206,216.22807 600.68537,217.99402 601.10868,219.75996 C 601.53528,217.99402 601.96188,216.22807 602.38848,214.46213 C 602.99367,214.46213 603.59885,214.46213 604.20401,214.46213 C 603.62199,216.89213 603.03997,219.32214 602.45793,221.75215 C 601.72378,221.75215 600.98961,221.75215 600.25546,221.75215 C 599.80736,219.90483 599.35927,218.05749 598.91117,216.21017 C 598.46803,218.05749 598.02491,219.90483 597.58177,221.75215 C 596.84761,221.75215 596.11346,221.75215 595.37931,221.75215 C 594.79231,219.32214 594.20531,216.89213 593.61833,214.46213 z M 609.25874,217.8215 C 610.73493,218.03361 611.27845,219.98108 610.31224,221.01668 C 609.06623,222.14555 607.168,221.99641 605.62781,221.65487 C 604.91953,221.65553 605.30178,220.84882 605.20603,220.39801 C 605.1723,219.63001 606.50135,220.89574 607.05258,220.60622 C 608.59785,221.16567 609.7273,218.81489 607.79044,218.63913 C 607.40632,218.40643 606.3233,218.95806 606.47591,218.24824 C 606.52208,217.8664 606.2627,217.18379 606.90808,217.39178 C 607.78112,217.56287 609.24614,217.02923 608.51064,215.9706 C 607.72399,215.07331 606.01531,216.11797 605.52349,215.80703 C 605.6376,215.40991 605.25196,214.63317 605.80563,214.56954 C 607.23526,214.28702 609.01467,214.03812 610.20836,215.06056 C 611.03646,215.99201 610.56885,217.6294 609.25874,217.82149 L 609.25874,217.8215 z M 614.51687,220.3703 C 615.60322,220.3703 616.68955,220.3703 617.77588,220.3703 C 617.77588,220.83092 617.77588,221.29154 617.77588,221.75215 C 615.98184,221.75215 614.18779,221.75215 612.39376,221.75215 C 612.4316,221.28471 612.31915,220.75052 612.44777,220.3234 C 613.46858,219.39011 614.59653,218.55976 615.53437,217.54652 C 616.59846,216.12018 614.44908,215.00999 613.27952,215.90925 C 612.6154,216.34552 612.25685,216.45026 612.41361,215.58162 C 612.18414,214.76787 612.76912,214.51218 613.53072,214.47104 C 614.91091,214.20562 616.80377,214.17021 617.54151,215.59615 C 618.1305,216.80928 617.30907,218.06652 616.33899,218.79255 C 615.73474,219.32193 615.12389,219.84404 614.51687,220.3703 z M 619.33349,214.46213 C 621.19367,214.46213 623.05383,214.46213 624.91401,214.46213 C 624.91398,215.028 624.99128,215.61043 624.645,216.10225 C 623.77234,217.98555 622.89968,219.86884 622.02702,221.75215 C 621.40695,221.75215 620.7869,221.75215 620.16683,221.75215 C 621.07793,219.78274 621.98901,217.81335 622.90008,215.84395 C 621.71123,215.84395 620.52236,215.84395 619.33349,215.84395 C 619.33349,215.38334 619.33349,214.92274 619.33349,214.46213 z M 630.3904,218.09982 C 630.67317,216.95712 629.81686,214.67174 628.44767,216.04438 C 627.95796,217.18814 628.07888,218.51348 628.26142,219.71388 C 628.556,221.32262 630.69895,220.41122 630.35343,219.02152 C 630.3812,218.71508 630.39024,218.40735 630.3904,218.09981 L 630.3904,218.09982 z M 632.30021,218.11446 C 632.36482,219.59567 631.7455,221.43384 630.10103,221.79791 C 628.6761,222.19483 626.96224,221.51689 626.51379,220.05652 C 626.0128,218.44266 625.99098,216.40501 627.20632,215.08544 C 628.55885,213.77794 631.25314,214.18094 631.92504,216.01154 C 632.21319,216.67249 632.29862,217.40089 632.30019,218.11446 L 632.30021,218.11446 z"
           id="path3266" />
      </g>
    </g>
  </g>
</svg>
