#define four_width 16 
#define four_height 14 
static unsigned char four_bits[] = { 
0x00, 0x00, 0xf8, 0x1f, 0x08, 0x10, 0x08, 0x12, 0x08, 0x13, 0x88, 0x12, 0x48, 0x12, 0xe8, 0x17, 0x08, 0x12, 0x08, 0x12, 0x08, 0x12, 0x08, 0x10, 0xf8, 0x1f, 0x00, 0x00
};
