#define warning_width 16
#define warning_height 14
static unsigned char warning_bits[] = {
   0xe0, 0x07, 0x10, 0x08, 0xc8, 0x13, 0x28, 0x14, 0x28, 0x14, 0x28, 0x14,
   0xfc, 0x3f, 0x04, 0x20, 0x04, 0x20, 0x04, 0x20, 0x04, 0x20, 0x04, 0x20,
   0x04, 0x20, 0xfc, 0x3f };
