#define b_width 16 
#define b_height 14 
static unsigned char b_bits[] = { 
0xe0, 0x03, 0x20, 0x04, 0x20, 0x04, 0xe0, 0x03, 0x20, 0x04, 0x20, 0x04, 0xe0, 0x03, 0x00, 0x00, 0x00, 0x00, 0x00, 0x00, 0x00, 0x00, 0x00, 0x00, 0x00, 0x00, 0x00, 0x00
};
