/* Editor http://4umi.com/web/javascript/xbm.htm */
#define locked_width 16
#define locked_height 14
static unsigned char locked_bits[] = {
0xe0, 0x07, 0x10, 0x08, 0xc8, 0x13, 0x28, 0x14, 0x28, 0x14, 0x28, 0x14, 0xfc, 0x3f, 0xac, 0x2a, 0x54, 0x35, 0xac, 0x2a, 0x54, 0x35, 0xac, 0x2a, 0x54, 0x35, 0xfc, 0x3f
};
