#define shift_width 16
#define shift_height 14
static unsigned char shift_bits[] = { 
  0x00, 0x00, 0x80, 0x00, 0x40, 0x01, 0x20, 0x02, 0x10, 0x04, 0x78, 0x0f,
  0x40, 0x01, 0x40, 0x01, 0x40, 0x01, 0x40, 0x01, 0x40, 0x01, 0x40, 0x01,
  0xc0, 0x01, 0x00, 0x00, };
